<?xml version="1.0" encoding="UTF-8"?>
<!DOCTYPE svg PUBLIC "-//W3C//DTD SVG 1.1//EN" "http://www.w3.org/Graphics/SVG/1.1/DTD/svg11.dtd">
<svg xmlns="http://www.w3.org/2000/svg" version="1.1" width="2048px" height="2048px" style="shape-rendering:geometricPrecision; text-rendering:geometricPrecision; image-rendering:optimizeQuality; fill-rule:evenodd; clip-rule:evenodd" xmlns:xlink="http://www.w3.org/1999/xlink">
<g><path style="opacity:0.995" fill="#8FFDF3" d="M 68.5,-0.5 C 705.167,-0.5 1341.83,-0.5 1978.5,-0.5C 2015.82,8.1489 2038.82,31.1489 2047.5,68.5C 2047.5,705.167 2047.5,1341.83 2047.5,1978.5C 2044.53,1987.9 2041.03,1997.23 2037,2006.5C 2023.4,2028.6 2003.9,2042.27 1978.5,2047.5C 1341.83,2047.5 705.167,2047.5 68.5,2047.5C 31.1844,2038.85 8.18443,2015.85 -0.5,1978.5C -0.5,1341.83 -0.5,705.167 -0.5,68.5C 8.18443,31.1489 31.1844,8.1489 68.5,-0.5 Z M 451.5,282.5 C 505.538,282.886 550.705,302.886 587,342.5C 623.089,385.509 636.422,434.842 627,490.5C 612.176,557.993 572.009,602.827 506.5,625C 481.307,633.014 455.64,635.014 429.5,631C 373.889,621.023 331.722,591.857 303,543.5C 273.856,487.848 273.189,431.848 301,375.5C 328.118,327.824 368.618,297.991 422.5,286C 432.273,284.457 441.94,283.29 451.5,282.5 Z M 1358.5,744.5 C 1418.94,741.607 1477.94,749.107 1535.5,767C 1610.9,794.407 1665.07,844.574 1698,917.5C 1718.88,969.899 1731.88,1024.23 1737,1080.5C 1738.82,1099.47 1740.15,1118.47 1741,1137.5C 1742.47,1339.16 1742.97,1540.83 1742.5,1742.5C 1642.26,1742.17 1542.1,1742.5 1442,1743.5C 1441.67,1566.83 1441.33,1390.17 1441,1213.5C 1441.22,1171.82 1434.22,1131.48 1420,1092.5C 1399.79,1045.47 1364.29,1018.3 1313.5,1011C 1190.81,998.055 1121.31,1052.55 1105,1174.5C 1103.06,1189.45 1101.73,1204.45 1101,1219.5C 1100.67,1394.17 1100.33,1568.83 1100,1743.5C 999.667,1742.17 899.333,1742.17 799,1743.5C 798.5,1418.5 798.333,1093.5 798.5,768.5C 894.833,768.5 991.167,768.5 1087.5,768.5C 1087.33,812.835 1087.5,857.168 1088,901.5C 1090.59,902.982 1092.93,902.648 1095,900.5C 1109.36,872.984 1128.2,848.818 1151.5,828C 1210.84,776.601 1279.84,748.768 1358.5,744.5 Z M 305.5,768.5 C 405.833,768.5 506.167,768.5 606.5,768.5C 606.667,1093.5 606.5,1418.5 606,1743.5C 505.904,1742.5 405.737,1742.17 305.5,1742.5C 305.5,1417.83 305.5,1093.17 305.5,768.5 Z"/></g>
</svg>
